<?xml version="1.0" encoding="UTF-8"?>
<svg id="Layer_2" data-name="Layer 2" xmlns="http://www.w3.org/2000/svg" viewBox="0 0 886.74 258.28">
  <defs>
    <style>
      .cls-1 {
        fill: #231f20;
      }

      .cls-2 {
        fill: #fff;
      }

      .cls-3 {
        fill: #f79320;
      }
    </style>
  </defs>
  <g id="Layer_1-2" data-name="Layer 1">
    <g>
      <g>
        <path class="cls-1" d="M377.32,23.99l-1.48-.24c-9.48-1.54-16.66-2.62-19.33-2.97-1.59-.21-3-.34-4.44-.42-.46-.02-1.31-.07-2.68-.08-3.62-.04-5.43-.07-6.97.2-1.75.3-3.49.92-5.17,1.86l-1.31.73-1.46-2.62,1.31-.73c1.98-1.1,4.04-1.83,6.12-2.19,1.8-.31,3.71-.28,7.51-.24,1.43.02,2.32.06,2.8.09,1.52.08,3,.22,4.67.44,2.69.35,9.92,1.43,19.42,2.98l1.48.24-.48,2.96Z"/>
        <g>
          <path class="cls-1" d="M51.3,44.49c17.31,0,30.08,4.68,38.31,14.04,8.22,9.36,12.34,21.93,12.34,37.69v5.62h-24.03v-6.8c0-9.46-2.06-16.75-6.17-21.88-4.11-5.12-10.71-7.69-19.8-7.69s-15.7,2.56-19.81,7.69c-4.11,5.13-6.17,12.32-6.17,21.58,0,7.69,1.89,14.39,5.68,20.1,3.78,5.72,8.49,10.99,14.12,15.82,5.63,4.83,11.74,9.56,18.34,14.19,6.6,4.63,12.71,9.71,18.34,15.22,5.63,5.52,10.33,11.78,14.12,18.77,3.78,7,5.68,15.33,5.68,24.98,0,15.77-4.17,28.33-12.5,37.69-8.34,9.36-21.27,14.04-38.8,14.04s-30.41-4.68-38.64-14.04c-8.23-9.36-12.34-21.92-12.34-37.69v-11.82h23.7v13.01c0,9.46,2.16,16.75,6.49,21.88,4.33,5.13,11.04,7.69,20.13,7.69s15.8-2.56,20.13-7.69c4.33-5.12,6.49-12.42,6.49-21.88,0-7.69-1.9-14.34-5.68-19.95-3.79-5.62-8.5-10.84-14.12-15.67-5.63-4.83-11.69-9.56-18.18-14.19-6.49-4.63-12.56-9.7-18.18-15.22-5.63-5.51-10.34-11.77-14.12-18.77-3.79-6.99-5.68-15.32-5.68-24.98,0-15.96,4.11-28.57,12.34-37.84,8.22-9.26,20.89-13.89,37.99-13.89Z"/>
          <g>
            <g>
              <path class="cls-3" d="M360.62,43.87h-1.24c-.04-.3-.07-.61-.1-.91-.72-4.7-2.15-9.21-3.9-13.64-1.1-2.77-3.52-7.98-8.46-13.62-4.4-5.01-9.1-8.33-12.73-10.44-2.11-1.28-3.85-2-5.08-2.43-.41-.14-.82-.27-2.84-.95-.94-.32-1.89-.63-2.83-.95-2.38-.31-4.76-.62-7.14-.93-2.41,0-4.78.33-7.16.58-5.2,1.19-9.95,3.34-14.31,6.28-2.49,2-4.98,3.99-7.2,6.3-2.81,2.92-5.04,6.25-7.57,9.36-1.21,2.28-2.42,4.55-3.62,6.83-1.49,2.81-3.47,7.42-4.89,13.62-.07.32-.13.6-.19.9h-1.42c-11.03,0-20,8.97-20,20v132.2c8.42-.12,16.31-1.42,23.64-3.5v-125.06h83.42v164.4h-83.42v-20.2c-7.36,1.42-15.25,2.26-23.64,2.29v21.55c0,11.03,8.97,20,20,20h90.7c11.03,0,20-8.97,20-20V63.87c0-11.03-8.97-20-20-20ZM274.81,41.48c.43-1.75,1.18-3.4,1.88-5.06.07-.1.15-.21.22-.31h-.01c3.12-7.68,7.59-14.54,13.62-20.45,4.34-4.25,9.32-7.61,15.28-9.52,1.08-.35,2.16-.7,3.31-.78,3.09-.53,8.74-1.08,15.31.78,4.2,1.19,7.4,2.98,9.55,4.43,3.78,2.64,7.28,5.59,10.24,9.08,2.55,3.01,4.87,6.17,6.66,9.66,2.43,4.18,4.29,8.58,5.41,13.25.18.43.32.87.44,1.31h-4.4c-.07-.3-.15-.6-.22-.9-.47-1.92-.96-3.83-1.41-5.75-.65-2.76-2.04-5.27-3.04-7.9-1.78-2.83-3.52-5.69-5.77-8.23-3.89-4.39-8.4-7.78-13.61-9.97-1.73-.73-4.83-2-9.04-2.47-9.47-1.06-17.01,2.76-19.67,4.29-7.31,4.21-11.62,10.45-14.48,15.15-.2.33-.41.64-.62.96-.68,1.06-3.59,5.92-5.48,13.9-.06.26-.13.58-.2.91h-4.67c.24-.8.47-1.6.71-2.39ZM350.52,43.87h-70.7c.65-2.26,1.59-4.9,2.96-7.76,2.42-5.05,7.5-15.62,19.27-20.88,2.08-.93,7.65-3.34,15.07-2.9,6.58.39,11.42,2.83,13.48,3.9,0,0,3.05,1.58,5.84,3.8,7.47,5.93,12.08,17.71,14.08,23.84Z"/>
              <rect class="cls-1" x="295.57" y="107.14" width="39.4" height="7.29" rx=".76" ry=".76"/>
            </g>
            <g>
              <path class="cls-3" d="M240.4,195.71v-121.11c0-10.71-8.48-19.49-19.08-19.96,0,0,0,0,0,0-.1-.9-.2-1.79-.31-2.69-.72-4.7-2.15-9.21-3.9-13.64-1.1-2.77-3.52-7.98-8.46-13.62-4.4-5.01-9.1-8.33-12.73-10.44-2.11-1.28-3.85-2-5.08-2.43-.41-.14-.82-.27-2.84-.95-.94-.32-1.89-.63-2.83-.95-2.38-.31-4.76-.62-7.14-.93-2.41,0-4.78.33-7.16.58-5.2,1.19-9.95,3.34-14.31,6.28-2.49,2-4.98,3.99-7.2,6.3-2.81,2.92-5.04,6.25-7.57,9.36-1.21,2.28-2.42,4.55-3.62,6.83-1.49,2.81-3.47,7.42-4.89,13.62-.23,1-.4,1.87-.54,2.68-10.63.44-19.13,9.23-19.13,19.96v160.95c0,11.03,8.97,20,20,20h86.8c11.03,0,20-8.97,20-20v-21.86c-8.03-.56-15.91-1.87-23.63-3.92v22.14h-79.54V78.24h79.54v112.13c7.27,2.66,15.16,4.58,23.63,5.34ZM141.08,54.61c.65-2.59,1.69-5.88,3.43-9.51,2.42-5.05,7.5-15.62,19.27-20.88,2.08-.93,7.65-3.34,15.07-2.9,6.58.39,11.42,2.83,13.48,3.9,0,0,3.05,1.58,5.84,3.8,8.27,6.57,13.03,20.28,14.63,25.6h-71.72ZM214.47,54.61c-.21-.88-.43-1.77-.64-2.65-.47-1.92-.96-3.83-1.41-5.75-.65-2.76-2.04-5.27-3.04-7.9-1.78-2.83-3.52-5.69-5.77-8.23-3.89-4.39-8.4-7.78-13.61-9.97-1.73-.73-4.83-2-9.04-2.47-9.47-1.06-17.01,2.76-19.67,4.29-7.31,4.21-11.62,10.45-14.48,15.15-.2.33-.41.64-.62.96-.68,1.06-3.59,5.92-5.48,13.9-.16.67-.36,1.59-.56,2.66h-4.83c.41-1.38.82-2.76,1.22-4.15.43-1.75,1.18-3.4,1.88-5.06.07-.1.15-.21.22-.31h-.01c3.12-7.68,7.59-14.54,13.62-20.45,4.34-4.25,9.32-7.61,15.28-9.52,1.08-.35,2.16-.7,3.31-.78,3.09-.53,8.74-1.08,15.31.78,4.2,1.19,7.4,2.98,9.55,4.43,3.78,2.64,7.28,5.59,10.24,9.08,2.55,3.01,4.87,6.17,6.66,9.66,2.43,4.18,4.29,8.58,5.41,13.25.42.99.65,2.02.86,3.06h-4.4Z"/>
              <path class="cls-1" d="M188.3,110.79c0,5.97-5.06,10.82-11.3,10.82s-11.3-4.85-11.3-10.82,5.06-10.83,11.3-10.83,11.3,4.85,11.3,10.83Z"/>
            </g>
            <path class="cls-1" d="M333.92,158.23c-.04,5.95-.09,11.9-.13,17.86-5.04,4.63-26.61,23.72-60.23,30.5-7.32,1.48-15.22,2.38-23.64,2.41h-.49c-1.18,0-2.36-.02-3.56-.05-1.85-.05-3.68-.15-5.47-.28-8.49-.62-16.37-2.08-23.63-4.09-31.98-8.85-51.74-28.31-56.48-33.17.13-5.44.25-10.89.37-16.33,5.92,7.26,25.61,30.11,56.11,40.62,7.27,2.51,15.16,4.31,23.63,5.03,1.62.15,3.26.24,4.92.3,1.09.03,2.19.05,3.27.05.44,0,.89,0,1.33,0,8.41-.12,16.31-1.34,23.64-3.31,32.87-8.82,54.45-32.66,60.36-39.53Z"/>
          </g>
        </g>
        <g>
          <g id="H3OFp0.tif">
            <path class="cls-1" d="M434.76,41.47c.21-.27.45-.52.63-.82.26-.44.35-.94.36-1.45.12-4.99.24-9.99.36-14.98.12-4.98.25-9.96.36-14.94.05-1.95-1.18-3.59-3.06-4.07-.52-.13-1.07-.14-1.61-.15-5.29-.14-10.59-.28-15.88-.41-5.45-.14-10.9-.28-16.35-.42-4.38-.11-8.76-.24-13.14-.33-1.39-.03-2.71.31-3.93.98-.51.28-1,.59-1.49.91-1.84,1.21-3.68,2.42-5.52,3.63-1.39.92-2.81,1.8-4.18,2.75-.45.32-1.01.81-1.46,1.55-.52.84-.67,1.71-.7,2.34-.09,3.56-.18,7.11-.28,10.67-.04.43-.04,1.07.15,1.82.18.7.46,1.2.59,1.43.38.65.91,1.15,1.49,1.62,3.26,2.61,6.5,5.24,9.76,7.85,1.33,1.06,2.88,1.64,4.56,1.7,3.29.13,6.58.19,9.86.27,3.52.09,7.03.18,10.55.27,4.07.1,8.13.21,12.2.32,4.24.11,8.47.22,12.71.33.74.02,1.49.08,2.23-.09.4-.09.78-.24,1.17-.37l.62-.41ZM373.38,20.1c.91-2.59,3.72-4.64,7.02-4.15,3.2.48,5.61,3.36,5.5,6.58-.12,3.35-2.63,6.01-5.96,6.27-3.13.25-5.58-1.79-6.37-3.8.05,0,.1-.01.16-.02.86-.09,1.72-.15,2.57-.26,1.09-.14,1.94-.98,2.09-2.04.16-1.11-.4-2.13-1.41-2.6-.44-.2-.9-.24-1.38-.19-.73.07-1.46.13-2.21.19Z"/>
          </g>
          <g>
            <path class="cls-2" d="M385.65,33.38l.08-5.38,3.79.06-.08,5.38-3.79-.06Z"/>
            <path class="cls-2" d="M396.65,33.91c-1.12-.02-2.06-.33-2.8-.94-.75-.61-1.3-1.47-1.66-2.57-.36-1.1-.53-2.41-.5-3.92l.11-7.13c.03-1.58.23-2.92.63-4,.39-1.08.97-1.91,1.74-2.48.76-.57,1.71-.85,2.83-.83,1.09.02,2,.27,2.73.76.73.49,1.27,1.21,1.61,2.17s.51,2.15.48,3.59l-.03,2.01-3.79-.06.03-2.16c0-.63-.02-1.13-.09-1.48-.07-.35-.19-.61-.36-.76-.17-.15-.38-.23-.64-.23-.26,0-.48.08-.64.26-.16.18-.28.48-.36.91-.08.43-.12,1.02-.13,1.77l-.13,8.3c-.02,1.15.06,1.92.24,2.33.18.41.45.61.82.62.28,0,.5-.08.66-.25.16-.17.28-.43.36-.8.08-.36.12-.83.13-1.39l.04-2.56,3.79.06-.04,2.3c-.02,1.41-.23,2.61-.61,3.59-.38.98-.95,1.71-1.7,2.19-.75.48-1.65.71-2.72.69Z"/>
            <path class="cls-2" d="M408.72,34.1c-1.09-.02-2.01-.31-2.78-.87-.76-.56-1.33-1.37-1.71-2.42-.38-1.05-.55-2.36-.53-3.92l.12-7.61c.02-1.56.24-2.86.65-3.9.41-1.04,1.01-1.83,1.79-2.37.78-.54,1.72-.8,2.8-.78s2.02.31,2.78.87c.76.56,1.34,1.37,1.73,2.42.39,1.06.57,2.36.54,3.92l-.12,7.61c-.02,1.56-.25,2.86-.67,3.9-.42,1.04-1.02,1.83-1.8,2.37s-1.72.8-2.8.78ZM408.8,30.37c.33,0,.59-.12.77-.37.18-.25.3-.6.36-1.06.06-.45.09-.97.1-1.55l.13-8.38c0-.61,0-1.13-.05-1.57-.05-.44-.16-.79-.33-1.07-.17-.27-.42-.41-.76-.41-.33,0-.59.12-.77.39-.18.27-.3.62-.37,1.05-.07.44-.11.96-.12,1.57l-.13,8.38c0,.59.01,1.1.07,1.56.05.45.17.81.34,1.07.17.26.42.39.76.4Z"/>
            <path class="cls-2" d="M416.31,33.86l.33-21.14,3.87.06-.03,1.76c.56-.77,1.14-1.32,1.75-1.64.61-.32,1.23-.47,1.86-.46.62,0,1.14.23,1.58.66.44.43.76,1.08.96,1.94.61-.92,1.25-1.57,1.9-1.95.66-.38,1.33-.56,2.01-.55.56,0,1.06.21,1.49.61.43.4.77.98,1,1.74.23.76.34,1.69.32,2.79l-.26,16.46-3.87-.06.25-15.91c.01-.68-.06-1.17-.23-1.45-.16-.28-.41-.43-.74-.43-.21,0-.47.08-.77.24-.3.17-.59.41-.85.72,0,.05,0,.1,0,.15,0,.05,0,.11,0,.18l-.26,16.46-3.82-.06.25-15.91c.01-.68-.07-1.17-.24-1.45-.17-.28-.42-.43-.76-.43-.23,0-.49.08-.78.24-.29.17-.57.41-.84.72l-.26,16.79-3.87-.06Z"/>
          </g>
        </g>
        <path class="cls-1" d="M344.62,37.04c-6.45,0-11.89-1.58-13.75-5.12-1.49-2.82-.82-5.72-.79-5.84.66-2.75,2.69-4.43,3.83-5.19l1.25-.82,1.65,2.51-1.25.82c-.78.51-2.15,1.63-2.57,3.38,0,0-.42,1.94.53,3.74,2.35,4.46,17.2,5.09,29.16-.36,4.57-2.08,8.71-5.08,12.31-8.92l1.03-1.09,2.19,2.05-1.03,1.09c-3.87,4.12-8.33,7.35-13.25,9.59-5.82,2.65-13.04,4.15-19.3,4.15Z"/>
      </g>
      <path class="cls-1" d="M415.77,207.03c0,9.48,2.06,16.84,6.18,22.07,4.12,5.23,10.72,7.85,19.8,7.85s15.37-2.62,19.49-7.85c4.12-5.23,6.18-12.59,6.18-22.07V48.56h23.13v157.29c0,15.8-4.01,28.49-12.04,38.06-8.03,9.58-20.6,14.37-37.71,14.37s-29.36-4.79-37.39-14.37c-8.03-9.58-12.04-22.26-12.04-38.06V48.56h24.4v158.47Z"/>
      <g>
        <path class="cls-1" d="M556.22,44.35c17.53,0,30.63,4.68,39.29,14.04,8.65,9.36,12.99,22.02,12.99,37.98v107.01c0,4.61-.32,8.49-.67,11.41-.65,5.55-1.43,8.05-1.78,9.1-.87,2.62-1.92,4.69-2.73,6.13,1.77,1.31,4.85,3.24,9.12,4.34,3.99,1.02,7.39.9,9.53.65h3.25v20.4h-4.22c-13.85,0-23.49-4.43-28.9-13.3-1.81,1.86-4.53,4.35-8.24,6.65-10.91,6.77-21.91,6.74-27.63,6.64-8.34-.13-26.3,0-39.12-14.19-8.55-9.46-12.83-22.07-12.83-37.84v-107.01c0-15.96,4.27-28.62,12.83-37.98,8.55-9.36,21.59-14.04,39.12-14.04ZM556.22,65.34c-9.09,0-15.86,2.61-20.29,7.83-4.44,5.22-6.66,12.56-6.66,22.02v109.37c0,9.46,2.22,16.8,6.66,22.02,4.43,5.22,11.2,7.83,20.29,7.83s16.12-2.61,20.45-7.83c4.33-5.22,6.49-12.56,6.49-22.02v-109.37c0-9.46-2.17-16.8-6.49-22.02-4.33-5.22-11.15-7.83-20.45-7.83Z"/>
        <path class="cls-1" d="M659.15,255.55h-22.73V48.63h32.14l52.6,149.58V48.63h22.4v206.92h-26.3l-58.12-167.31v167.31Z"/>
        <path class="cls-1" d="M795.19,213.87l-8.77,41.68h-23.38l43.51-206.92h36.69l43.51,206.92h-25.32l-8.77-41.68h-57.47ZM798.43,194.06h50.65l-25.65-119.42-25,119.42Z"/>
      </g>
    </g>
  </g>
</svg>